<?xml version="1.0"?>
<svg version="1.1" xmlns="http://www.w3.org/2000/svg" width="800" height="140"><path fill="#32c798" d="M71.7626953125,219.90234375l-37.2314453125,0l0-189.94140625l37.2314453125,0l0,189.94140625z M214.67895507812,219.90234375l-7.2021484375-18.5546875l-0.9765625,0q-9.3994140625,11.8408203125-19.34814453125,16.41845703125t-25.93994140625,4.57763671875q-19.6533203125,0-30.94482421875-11.23046875t-11.29150390625-31.982421875q0-21.728515625,15.19775390625-32.04345703125t45.83740234375-11.41357421875l23.681640625-0.732421875l0-5.9814453125q0-20.751953125-21.240234375-20.751953125q-16.357421875,0-38.4521484375,9.8876953125l-12.3291015625-25.146484375q23.5595703125-12.3291015625,52.24609375-12.3291015625q27.4658203125,0,42.1142578125,11.962890625t14.6484375,36.376953125l0,90.9423828125l-26.0009765625,0z M203.69262695312,156.669921875l-14.404296875,0.48828125q-16.2353515625,0.48828125-24.169921875,5.859375t-7.9345703125,16.357421875q0,15.7470703125,18.06640625,15.7470703125q12.939453125,0,20.69091796875-7.4462890625t7.75146484375-19.775390625l0-11.23046875z M372.36572265625,80.8642578125q7.568359375,0,12.5732421875,1.0986328125l-2.8076171875,34.912109375q-4.5166015625-1.220703125-10.986328125-1.220703125q-17.822265625,0-27.77099609375,9.1552734375t-9.94873046875,25.634765625l0,69.4580078125l-37.2314453125,0l0-136.474609375l28.1982421875,0l5.4931640625,22.94921875l1.8310546875,0q6.34765625-11.474609375,17.15087890625-18.49365234375t23.49853515625-7.01904296875z M522.11791992188,179.375q0,20.99609375-14.58740234375,31.982421875t-43.64013671875,10.986328125q-14.892578125,0-25.390625-2.01416015625t-19.6533203125-5.92041015625l0-30.76171875q10.3759765625,4.8828125,23.37646484375,8.1787109375t22.88818359375,3.2958984375q20.263671875,0,20.263671875-11.71875q0-4.39453125-2.685546875-7.14111328125t-9.27734375-6.2255859375t-17.578125-8.11767578125q-15.7470703125-6.591796875-23.13232421875-12.20703125t-10.7421875-12.87841796875t-3.35693359375-17.88330078125q0-18.1884765625,14.09912109375-28.13720703125t39.97802734375-9.94873046875q24.658203125,0,47.9736328125,10.7421875l-11.23046875,26.85546875q-10.25390625-4.39453125-19.1650390625-7.2021484375t-18.1884765625-2.8076171875q-16.4794921875,0-16.4794921875,8.9111328125q0,5.0048828125,5.31005859375,8.6669921875t23.25439453125,10.8642578125q15.9912109375,6.4697265625,23.4375,12.0849609375t10.986328125,12.939453125t3.5400390625,17.4560546875z M694.3310546875,219.90234375l-37.2314453125,0l0-79.7119140625q0-29.541015625-21.97265625-29.541015625q-15.625,0-22.5830078125,10.6201171875t-6.9580078125,34.423828125l0,64.208984375l-37.2314453125,0l0-189.94140625l37.2314453125,0l0,38.6962890625q0,4.5166015625-0.8544921875,21.240234375l-0.8544921875,10.986328125l1.953125,0q12.451171875-20.01953125,39.55078125-20.01953125q24.0478515625,0,36.4990234375,12.939453125t12.451171875,37.109375l0,88.9892578125z M836.51489257812,219.90234375l-7.2021484375-18.5546875l-0.9765625,0q-9.3994140625,11.8408203125-19.34814453125,16.41845703125t-25.93994140625,4.57763671875q-19.6533203125,0-30.94482421875-11.23046875t-11.29150390625-31.982421875q0-21.728515625,15.19775390625-32.04345703125t45.83740234375-11.41357421875l23.681640625-0.732421875l0-5.9814453125q0-20.751953125-21.240234375-20.751953125q-16.357421875,0-38.4521484375,9.8876953125l-12.3291015625-25.146484375q23.5595703125-12.3291015625,52.24609375-12.3291015625q27.4658203125,0,42.1142578125,11.962890625t14.6484375,36.376953125l0,90.9423828125l-26.0009765625,0z M825.52856445312,156.669921875l-14.404296875,0.48828125q-16.2353515625,0.48828125-24.169921875,5.859375t-7.9345703125,16.357421875q0,15.7470703125,18.06640625,15.7470703125q12.939453125,0,20.69091796875-7.4462890625t7.75146484375-19.775390625l0-11.23046875z M1044.0063476562,219.90234375l-37.2314453125,0l0-79.7119140625q0-14.7705078125-5.2490234375-22.15576171875t-16.7236328125-7.38525390625q-15.625,0-22.5830078125,10.43701171875t-6.9580078125,34.60693359375l0,64.208984375l-37.2314453125,0l0-136.474609375l28.4423828125,0l5.0048828125,17.4560546875l2.0751953125,0q6.2255859375-9.8876953125,17.15087890625-14.95361328125t24.84130859375-5.06591796875q23.8037109375,0,36.1328125,12.87841796875t12.3291015625,37.17041015625l0,88.9892578125z M1194.7351074219,179.375q0,20.99609375-14.58740234375,31.982421875t-43.64013671875,10.986328125q-14.892578125,0-25.390625-2.01416015625t-19.6533203125-5.92041015625l0-30.76171875q10.3759765625,4.8828125,23.37646484375,8.1787109375t22.88818359375,3.2958984375q20.263671875,0,20.263671875-11.71875q0-4.39453125-2.685546875-7.14111328125t-9.27734375-6.2255859375t-17.578125-8.11767578125q-15.7470703125-6.591796875-23.13232421875-12.20703125t-10.7421875-12.87841796875t-3.35693359375-17.88330078125q0-18.1884765625,14.09912109375-28.13720703125t39.97802734375-9.94873046875q24.658203125,0,47.9736328125,10.7421875l-11.23046875,26.85546875q-10.25390625-4.39453125-19.1650390625-7.2021484375t-18.1884765625-2.8076171875q-16.4794921875,0-16.4794921875,8.9111328125q0,5.0048828125,5.31005859375,8.6669921875t23.25439453125,10.8642578125q15.9912109375,6.4697265625,23.4375,12.0849609375t10.986328125,12.939453125t3.5400390625,17.4560546875z M1297.490234375,107.353515625q-11.8408203125,0-18.5546875,7.50732421875t-7.6904296875,21.30126953125l52.24609375,0q-0.244140625-13.7939453125-7.2021484375-21.30126953125t-18.798828125-7.50732421875z M1302.7392578125,222.34375q-32.958984375,0-51.513671875-18.1884765625t-18.5546875-51.513671875q0-34.3017578125,17.15087890625-53.03955078125t47.42431640625-18.73779296875q28.9306640625,0,45.0439453125,16.4794921875t16.11328125,45.5322265625l0,18.06640625l-88.0126953125,0q0.6103515625,15.869140625,9.3994140625,24.7802734375t24.658203125,8.9111328125q12.3291015625,0,23.3154296875-2.5634765625t22.94921875-8.1787109375l0,28.80859375q-9.765625,4.8828125-20.8740234375,7.26318359375t-27.099609375,2.38037109375z M1531.8371582031,219.90234375l-37.2314453125,0l0-79.7119140625q0-14.7705078125-5.2490234375-22.15576171875t-16.7236328125-7.38525390625q-15.625,0-22.5830078125,10.43701171875t-6.9580078125,34.60693359375l0,64.208984375l-37.2314453125,0l0-136.474609375l28.4423828125,0l5.0048828125,17.4560546875l2.0751953125,0q6.2255859375-9.8876953125,17.15087890625-14.95361328125t24.84130859375-5.06591796875q23.8037109375,0,36.1328125,12.87841796875t12.3291015625,37.17041015625l0,88.9892578125z"/><path fill="#348bc9" d="M1580.2661132812,200.7373046875q0-1.708984375,1.03759765625-2.74658203125t2.74658203125-1.40380859375t3.60107421875-0.48828125t3.96728515625-0.3662109375q24.5361328125-0.48828125,49.13330078125-0.9765625t49.37744140625-0.48828125q4.2724609375,0,6.4697265625,1.77001953125t2.3193359375,3.72314453125t-2.01416015625,3.72314453125t-6.77490234375,1.77001953125q-23.193359375,0-46.2646484375,0.244140625t-46.2646484375,0.244140625q-0.244140625,0-2.99072265625,0.1220703125t-5.92041015625-0.244140625t-5.79833984375-1.46484375t-2.62451171875-3.41796875z M1724.0246582031,148.0029296875q0-9.521484375,2.01416015625-17.27294921875t6.40869140625-13.12255859375t11.53564453125-8.36181640625t17.39501953125-2.99072265625q5.7373046875,0,11.71875,1.52587890625t10.25390625,5.67626953125q0-2.44140625,0.48828125-10.07080078125t1.220703125-17.76123046875t1.52587890625-21.240234375t1.40380859375-20.6298828125t1.0986328125-15.9912109375t0.732421875-7.32421875q1.220703125-3.5400390625,4.5166015625-4.21142578125t6.2255859375-0.67138671875q7.6904296875,0,9.46044921875,2.44140625t1.77001953125,9.765625q0,26.7333984375-2.38037109375,53.22265625t-2.38037109375,53.22265625q0,17.2119140625,0.67138671875,34.60693359375t4.82177734375,34.24072265625l1.3427734375,1.220703125l0.732421875,2.197265625l-1.8310546875,2.8076171875q-4.638671875,2.9296875-10.7421875,2.9296875l-0.48828125,0q-6.2255859375,0-11.474609375-2.9296875q-1.953125-1.220703125-3.23486328125-7.26318359375t-2.01416015625-13.3056640625t-1.0986328125-13.97705078125t-0.6103515625-9.521484375q-4.2724609375,9.765625-11.65771484375,16.78466796875t-18.61572265625,7.01904296875q-8.7890625,0-14.404296875-3.7841796875t-8.72802734375-9.6435546875t-4.39453125-13.12255859375t-1.28173828125-14.46533203125z M1738.7951660156,148.7353515625q0,2.8076171875,0.67138671875,8.30078125t2.13623046875,10.986328125t4.08935546875,9.765625t6.89697265625,4.2724609375q5.7373046875-2.8076171875,10.3759765625-9.33837890625t7.99560546875-14.404296875t5.2490234375-15.7470703125t1.89208984375-13.61083984375q0-7.2021484375-5.2490234375-11.962890625t-12.5732421875-4.7607421875q-2.197265625,0-4.45556640625,0.8544921875t-4.21142578125,1.953125q-4.5166015625,4.2724609375-7.01904296875,7.75146484375t-3.7841796875,7.2021484375t-1.64794921875,8.23974609375t-0.3662109375,10.498046875z M1839.5849609375,154.47265625q0-8.544921875,1.89208984375-20.1416015625t6.40869140625-21.97265625t11.90185546875-17.63916015625t18.61572265625-7.26318359375q10.498046875,0,15.7470703125,6.04248046875t5.2490234375,16.29638671875q0,6.7138671875-2.50244140625,14.70947265625t-7.14111328125,15.13671875t-10.986328125,11.90185546875t-14.16015625,4.7607421875l-3.173828125-0.244140625q0,3.2958984375,0.9765625,8.85009765625t2.86865234375,11.04736328125t4.8828125,9.6435546875t7.26318359375,4.150390625q6.2255859375,0,11.962890625-5.0048828125t10.8642578125-11.1083984375t9.521484375-11.1083984375t8.056640625-5.0048828125q1.953125,0,4.0283203125,0.6103515625t2.3193359375,3.41796875q0,1.708984375-0.91552734375,2.8076171875t-1.64794921875,2.44140625q-3.7841796875,6.4697265625-8.23974609375,12.3291015625t-10.07080078125,10.6201171875t-12.26806640625,7.50732421875t-14.70947265625,2.74658203125q-10.498046875,0-17.4560546875-3.72314453125t-11.23046875-10.009765625t-6.16455078125-14.5263671875t-1.89208984375-17.27294921875z M1861.435546875,145.1953125l3.41796875,3.0517578125q2.44140625,2.197265625,4.8828125,0.9765625t4.39453125-4.45556640625t3.60107421875-7.99560546875t2.9296875-9.765625t1.89208984375-9.765625t0.6103515625-7.9345703125l0-4.150390625t-0.3662109375-4.39453125t-1.28173828125-3.47900390625t-2.86865234375-1.77001953125q-0.6103515625-0.1220703125-1.0986328125-0.1220703125q-4.150390625,0-7.080078125,5.2490234375q-3.173828125,5.859375-5.126953125,14.22119140625t-2.8076171875,17.15087890625t-1.0986328125,13.18359375z M1936.5905761719,104.0576171875q0-0.9765625,1.15966796875-1.77001953125t2.62451171875-1.15966796875t2.99072265625-0.48828125t2.25830078125-0.1220703125q5.4931640625,0,9.3994140625,4.8828125t6.77490234375,12.51220703125t4.8828125,16.845703125t3.84521484375,18.37158203125t3.60107421875,16.78466796875t3.96728515625,11.77978515625q3.7841796875-7.4462890625,6.89697265625-17.9443359375t5.7373046875-21.728515625t4.638671875-22.15576171875t3.23486328125-19.10400390625q0.48828125-2.197265625,3.0517578125-2.74658203125t4.2724609375-0.54931640625q2.8076171875,0,4.8828125,0.79345703125t2.0751953125,3.47900390625q0,4.5166015625-1.0986328125,12.26806640625t-2.99072265625,17.39501953125t-4.39453125,19.775390625t-5.37109375,19.22607421875t-5.9814453125,16.11328125t-6.16455078125,9.94873046875q-1.46484375,1.708984375-4.57763671875,2.38037109375t-5.18798828125,0.67138671875q-7.2021484375,0-11.962890625-3.7841796875l0,0.244140625q-7.4462890625-6.9580078125-10.986328125-16.9677734375t-5.126953125-20.8740234375t-2.86865234375-21.6064453125t-4.33349609375-19.53125q-0.48828125-0.9765625-1.220703125-2.86865234375t-1.708984375-3.7841796875t-1.64794921875-3.60107421875t-0.67138671875-2.685546875z"/></svg>
