<?xml version="1.0"?>
<svg version="1.1" xmlns="http://www.w3.org/2000/svg" width="100%" height="130"><path fill="#32c798" d="M37.705078125,124.9609375l-14.892578125,0l0-75.9765625l14.892578125,0l0,75.9765625z M94.87158203125,124.9609375l-2.880859375-7.421875l-0.390625,0q-3.759765625,4.736328125-7.7392578125,6.5673828125t-10.3759765625,1.8310546875q-7.861328125,0-12.3779296875-4.4921875t-4.5166015625-12.79296875q0-8.69140625,6.0791015625-12.8173828125t18.3349609375-4.5654296875l9.47265625-0.29296875l0-2.392578125q0-8.30078125-8.49609375-8.30078125q-6.54296875,0-15.380859375,3.955078125l-4.931640625-10.05859375q9.423828125-4.931640625,20.8984375-4.931640625q10.986328125,0,16.845703125,4.78515625t5.859375,14.55078125l0,36.376953125l-10.400390625,0z M90.47705078125,99.66796875l-5.76171875,0.1953125q-6.494140625,0.1953125-9.66796875,2.34375t-3.173828125,6.54296875q0,6.298828125,7.2265625,6.298828125q5.17578125,0,8.2763671875-2.978515625t3.1005859375-7.91015625l0-4.4921875z M157.9462890625,69.345703125q3.02734375,0,5.029296875,0.439453125l-1.123046875,13.96484375q-1.806640625-0.48828125-4.39453125-0.48828125q-7.12890625,0-11.1083984375,3.662109375t-3.9794921875,10.25390625l0,27.783203125l-14.892578125,0l0-54.58984375l11.279296875,0l2.197265625,9.1796875l0.732421875,0q2.5390625-4.58984375,6.8603515625-7.3974609375t9.3994140625-2.8076171875z M217.84716796875,108.75q0,8.3984375-5.8349609375,12.79296875t-17.4560546875,4.39453125q-5.95703125,0-10.15625-0.8056640625t-7.861328125-2.3681640625l0-12.3046875q4.150390625,1.953125,9.3505859375,3.271484375t9.1552734375,1.318359375q8.10546875,0,8.10546875-4.6875q0-1.7578125-1.07421875-2.8564453125t-3.7109375-2.490234375t-7.03125-3.2470703125q-6.298828125-2.63671875-9.2529296875-4.8828125t-4.296875-5.1513671875t-1.3427734375-7.1533203125q0-7.275390625,5.6396484375-11.2548828125t15.9912109375-3.9794921875q9.86328125,0,19.189453125,4.296875l-4.4921875,10.7421875q-4.1015625-1.7578125-7.666015625-2.880859375t-7.275390625-1.123046875q-6.591796875,0-6.591796875,3.564453125q0,2.001953125,2.1240234375,3.466796875t9.3017578125,4.345703125q6.396484375,2.587890625,9.375,4.833984375t4.39453125,5.17578125t1.416015625,6.982421875z M286.732421875,124.9609375l-14.892578125,0l0-31.884765625q0-11.81640625-8.7890625-11.81640625q-6.25,0-9.033203125,4.248046875t-2.783203125,13.76953125l0,25.68359375l-14.892578125,0l0-75.9765625l14.892578125,0l0,15.478515625q0,1.806640625-0.341796875,8.49609375l-0.341796875,4.39453125l0.78125,0q4.98046875-8.0078125,15.8203125-8.0078125q9.619140625,0,14.599609375,5.17578125t4.98046875,14.84375l0,35.595703125z M343.60595703125,124.9609375l-2.880859375-7.421875l-0.390625,0q-3.759765625,4.736328125-7.7392578125,6.5673828125t-10.3759765625,1.8310546875q-7.861328125,0-12.3779296875-4.4921875t-4.5166015625-12.79296875q0-8.69140625,6.0791015625-12.8173828125t18.3349609375-4.5654296875l9.47265625-0.29296875l0-2.392578125q0-8.30078125-8.49609375-8.30078125q-6.54296875,0-15.380859375,3.955078125l-4.931640625-10.05859375q9.423828125-4.931640625,20.8984375-4.931640625q10.986328125,0,16.845703125,4.78515625t5.859375,14.55078125l0,36.376953125l-10.400390625,0z M339.21142578125,99.66796875l-5.76171875,0.1953125q-6.494140625,0.1953125-9.66796875,2.34375t-3.173828125,6.54296875q0,6.298828125,7.2265625,6.298828125q5.17578125,0,8.2763671875-2.978515625t3.1005859375-7.91015625l0-4.4921875z M426.6025390625,124.9609375l-14.892578125,0l0-31.884765625q0-5.908203125-2.099609375-8.8623046875t-6.689453125-2.9541015625q-6.25,0-9.033203125,4.1748046875t-2.783203125,13.8427734375l0,25.68359375l-14.892578125,0l0-54.58984375l11.376953125,0l2.001953125,6.982421875l0.830078125,0q2.490234375-3.955078125,6.8603515625-5.9814453125t9.9365234375-2.0263671875q9.521484375,0,14.453125,5.1513671875t4.931640625,14.8681640625l0,35.595703125z M486.89404296875,108.75q0,8.3984375-5.8349609375,12.79296875t-17.4560546875,4.39453125q-5.95703125,0-10.15625-0.8056640625t-7.861328125-2.3681640625l0-12.3046875q4.150390625,1.953125,9.3505859375,3.271484375t9.1552734375,1.318359375q8.10546875,0,8.10546875-4.6875q0-1.7578125-1.07421875-2.8564453125t-3.7109375-2.490234375t-7.03125-3.2470703125q-6.298828125-2.63671875-9.2529296875-4.8828125t-4.296875-5.1513671875t-1.3427734375-7.1533203125q0-7.275390625,5.6396484375-11.2548828125t15.9912109375-3.9794921875q9.86328125,0,19.189453125,4.296875l-4.4921875,10.7421875q-4.1015625-1.7578125-7.666015625-2.880859375t-7.275390625-1.123046875q-6.591796875,0-6.591796875,3.564453125q0,2.001953125,2.1240234375,3.466796875t9.3017578125,4.345703125q6.396484375,2.587890625,9.375,4.833984375t4.39453125,5.17578125t1.416015625,6.982421875z M527.99609375,79.94140625q-4.736328125,0-7.421875,3.0029296875t-3.076171875,8.5205078125l20.8984375,0q-0.09765625-5.517578125-2.880859375-8.5205078125t-7.51953125-3.0029296875z M530.095703125,125.9375q-13.18359375,0-20.60546875-7.275390625t-7.421875-20.60546875q0-13.720703125,6.8603515625-21.2158203125t18.9697265625-7.4951171875q11.572265625,0,18.017578125,6.591796875t6.4453125,18.212890625l0,7.2265625l-35.205078125,0q0.244140625,6.34765625,3.759765625,9.912109375t9.86328125,3.564453125q4.931640625,0,9.326171875-1.025390625t9.1796875-3.271484375l0,11.5234375q-3.90625,1.953125-8.349609375,2.9052734375t-10.83984375,0.9521484375z M621.73486328125,124.9609375l-14.892578125,0l0-31.884765625q0-5.908203125-2.099609375-8.8623046875t-6.689453125-2.9541015625q-6.25,0-9.033203125,4.1748046875t-2.783203125,13.8427734375l0,25.68359375l-14.892578125,0l0-54.58984375l11.376953125,0l2.001953125,6.982421875l0.830078125,0q2.490234375-3.955078125,6.8603515625-5.9814453125t9.9365234375-2.0263671875q9.521484375,0,14.453125,5.1513671875t4.931640625,14.8681640625l0,35.595703125z"/><path fill="#348bc9" d="M644.1064453125,117.294921875q0-0.68359375,0.4150390625-1.0986328125t1.0986328125-0.5615234375t1.4404296875-0.1953125t1.5869140625-0.146484375q9.814453125-0.1953125,19.6533203125-0.390625t19.7509765625-0.1953125q1.708984375,0,2.587890625,0.7080078125t0.927734375,1.4892578125t-0.8056640625,1.4892578125t-2.7099609375,0.7080078125q-9.27734375,0-18.505859375,0.09765625t-18.505859375,0.09765625q-0.09765625,0-1.1962890625,0.048828125t-2.3681640625-0.09765625t-2.3193359375-0.5859375t-1.0498046875-1.3671875z M701.60986328125,96.201171875q0-3.80859375,0.8056640625-6.9091796875t2.5634765625-5.2490234375t4.6142578125-3.3447265625t6.9580078125-1.1962890625q2.294921875,0,4.6875,0.6103515625t4.1015625,2.2705078125q0-0.9765625,0.1953125-4.0283203125t0.48828125-7.1044921875t0.6103515625-8.49609375t0.5615234375-8.251953125t0.439453125-6.396484375t0.29296875-2.9296875q0.48828125-1.416015625,1.806640625-1.6845703125t2.490234375-0.2685546875q3.076171875,0,3.7841796875,0.9765625t0.7080078125,3.90625q0,10.693359375-0.9521484375,21.2890625t-0.9521484375,21.2890625q0,6.884765625,0.2685546875,13.8427734375t1.9287109375,13.6962890625l0.537109375,0.48828125l0.29296875,0.87890625l-0.732421875,1.123046875q-1.85546875,1.171875-4.296875,1.171875l-0.1953125,0q-2.490234375,0-4.58984375-1.171875q-0.78125-0.48828125-1.2939453125-2.9052734375t-0.8056640625-5.322265625t-0.439453125-5.5908203125t-0.244140625-3.80859375q-1.708984375,3.90625-4.6630859375,6.7138671875t-7.4462890625,2.8076171875q-3.515625,0-5.76171875-1.513671875t-3.4912109375-3.857421875t-1.7578125-5.2490234375t-0.5126953125-5.7861328125z M707.51806640625,96.494140625q0,1.123046875,0.2685546875,3.3203125t0.8544921875,4.39453125t1.6357421875,3.90625t2.7587890625,1.708984375q2.294921875-1.123046875,4.150390625-3.7353515625t3.1982421875-5.76171875t2.099609375-6.298828125t0.7568359375-5.4443359375q0-2.880859375-2.099609375-4.78515625t-5.029296875-1.904296875q-0.87890625,0-1.7822265625,0.341796875t-1.6845703125,0.78125q-1.806640625,1.708984375-2.8076171875,3.1005859375t-1.513671875,2.880859375t-0.6591796875,3.2958984375t-0.146484375,4.19921875z M747.833984375,98.7890625q0-3.41796875,0.7568359375-8.056640625t2.5634765625-8.7890625t4.7607421875-7.0556640625t7.4462890625-2.9052734375q4.19921875,0,6.298828125,2.4169921875t2.099609375,6.5185546875q0,2.685546875-1.0009765625,5.8837890625t-2.8564453125,6.0546875t-4.39453125,4.7607421875t-5.6640625,1.904296875l-1.26953125-0.09765625q0,1.318359375,0.390625,3.5400390625t1.1474609375,4.4189453125t1.953125,3.857421875t2.9052734375,1.66015625q2.490234375,0,4.78515625-2.001953125t4.345703125-4.443359375t3.80859375-4.443359375t3.22265625-2.001953125q0.78125,0,1.611328125,0.244140625t0.927734375,1.3671875q0,0.68359375-0.3662109375,1.123046875t-0.6591796875,0.9765625q-1.513671875,2.587890625-3.2958984375,4.931640625t-4.0283203125,4.248046875t-4.9072265625,3.0029296875t-5.8837890625,1.0986328125q-4.19921875,0-6.982421875-1.4892578125t-4.4921875-4.00390625t-2.4658203125-5.810546875t-0.7568359375-6.9091796875z M756.57421875,95.078125l1.3671875,1.220703125q0.9765625,0.87890625,1.953125,0.390625t1.7578125-1.7822265625t1.4404296875-3.1982421875t1.171875-3.90625t0.7568359375-3.90625t0.244140625-3.173828125l0-1.66015625t-0.146484375-1.7578125t-0.5126953125-1.3916015625t-1.1474609375-0.7080078125q-0.244140625-0.048828125-0.439453125-0.048828125q-1.66015625,0-2.83203125,2.099609375q-1.26953125,2.34375-2.05078125,5.6884765625t-1.123046875,6.8603515625t-0.439453125,5.2734375z M786.63623046875,78.623046875q0-0.390625,0.4638671875-0.7080078125t1.0498046875-0.4638671875t1.1962890625-0.1953125t0.9033203125-0.048828125q2.197265625,0,3.759765625,1.953125t2.7099609375,5.0048828125t1.953125,6.73828125t1.5380859375,7.3486328125t1.4404296875,6.7138671875t1.5869140625,4.7119140625q1.513671875-2.978515625,2.7587890625-7.177734375t2.294921875-8.69140625t1.85546875-8.8623046875t1.2939453125-7.6416015625q0.1953125-0.87890625,1.220703125-1.0986328125t1.708984375-0.2197265625q1.123046875,0,1.953125,0.3173828125t0.830078125,1.3916015625q0,1.806640625-0.439453125,4.9072265625t-1.1962890625,6.9580078125t-1.7578125,7.91015625t-2.1484375,7.6904296875t-2.392578125,6.4453125t-2.4658203125,3.9794921875q-0.5859375,0.68359375-1.8310546875,0.9521484375t-2.0751953125,0.2685546875q-2.880859375,0-4.78515625-1.513671875l0,0.09765625q-2.978515625-2.783203125-4.39453125-6.787109375t-2.05078125-8.349609375t-1.1474609375-8.642578125t-1.7333984375-7.8125q-0.1953125-0.390625-0.48828125-1.1474609375t-0.68359375-1.513671875t-0.6591796875-1.4404296875t-0.2685546875-1.07421875z"/></svg>
